<svg width="1049" height="584" viewBox="0 0 1049 584" fill="none" xmlns="http://www.w3.org/2000/svg">
<g id="undraw_nuxt_js_0fq9 1" clip-path="url(#clip0)">
<g id="AnimateThis">
<path id="Vector" d="M576.78 81.0871L563.092 104.791L516.277 23.7044L372.563 272.593H469.867C469.867 278.88 472.364 284.909 476.81 289.354C481.255 293.8 487.284 296.297 493.571 296.297H372.563C368.403 296.296 364.316 295.2 360.713 293.12C357.11 291.039 354.119 288.046 352.039 284.443C349.959 280.84 348.864 276.753 348.864 272.592C348.864 268.432 349.959 264.344 352.04 260.741L495.753 11.8525C497.834 8.24892 500.826 5.25645 504.43 3.17589C508.033 1.09533 512.121 0 516.282 0C520.443 0 524.53 1.09533 528.134 3.17589C531.737 5.25645 534.73 8.24892 536.81 11.8525L576.78 81.0871Z" fill="#00C58E"/>
<path id="Vector_2" d="M680.524 260.741L590.469 104.791L576.78 81.0871L563.092 104.791L473.047 260.741C470.967 264.344 469.872 268.432 469.871 272.592C469.871 276.753 470.966 280.84 473.046 284.443C475.126 288.046 478.118 291.039 481.72 293.12C485.323 295.2 489.41 296.296 493.571 296.297H659.971C664.132 296.298 668.22 295.203 671.824 293.123C675.429 291.043 678.422 288.051 680.503 284.447C682.584 280.844 683.679 276.756 683.68 272.595C683.68 268.433 682.585 264.345 680.504 260.741H680.524V260.741ZM493.571 272.593L576.78 128.495L659.971 272.593H493.571V272.593Z" fill="#2F495E"/>
<path id="Vector_3" d="M744.909 284.445C742.829 288.048 739.838 291.04 736.235 293.121C732.632 295.201 728.546 296.297 724.385 296.297H659.971C663.083 296.297 666.166 295.684 669.042 294.493C671.918 293.301 674.531 291.555 676.732 289.354C678.933 287.153 680.679 284.54 681.87 281.664C683.061 278.788 683.674 275.706 683.674 272.593H724.336L608.958 72.7612L590.469 104.791L576.781 81.0871L588.435 60.9093C590.515 57.3057 593.508 54.3132 597.111 52.2327C600.715 50.1521 604.802 49.0568 608.963 49.0568C613.124 49.0568 617.212 50.1521 620.815 52.2327C624.419 54.3132 627.411 57.3057 629.492 60.9093L744.909 260.741C746.989 264.345 748.085 268.432 748.085 272.593C748.085 276.754 746.989 280.842 744.909 284.445V284.445Z" fill="#108775"/>
</g>
<path id="Vector_4" d="M1048.9 370.257C1048.9 321.994 1009.75 207.466 961.453 207.466C913.156 207.466 874.004 321.994 874.004 370.257C874.02 393.44 883.24 415.667 899.638 432.054C916.036 448.441 938.27 457.646 961.453 457.646C984.635 457.646 1006.87 448.441 1023.27 432.054C1039.66 415.667 1048.89 393.44 1048.9 370.257V370.257Z" fill="#F2F2F2"/>
<path id="Vector_5" d="M961.453 582.865C961.547 582.865 961.641 582.847 961.728 582.81C961.815 582.774 961.894 582.721 961.961 582.655C962.028 582.588 962.081 582.509 962.117 582.422C962.153 582.334 962.172 582.241 962.172 582.146V280.858C962.171 280.667 962.095 280.485 961.96 280.351C961.825 280.216 961.643 280.141 961.453 280.141C961.262 280.141 961.08 280.216 960.945 280.351C960.81 280.485 960.734 280.667 960.734 280.858V582.146C960.734 582.241 960.752 582.334 960.788 582.422C960.824 582.509 960.877 582.588 960.944 582.655C961.011 582.721 961.09 582.774 961.177 582.81C961.265 582.847 961.358 582.865 961.453 582.865V582.865Z" fill="#CCCCCC"/>
<path id="Vector_6" d="M961.453 339.023C961.547 339.024 961.641 339.005 961.728 338.969C961.815 338.933 961.894 338.88 961.961 338.813L996.573 304.225C996.708 304.09 996.783 303.907 996.783 303.716C996.783 303.526 996.707 303.343 996.573 303.208C996.438 303.073 996.255 302.998 996.064 302.998C995.874 302.998 995.691 303.074 995.556 303.209L960.944 337.797C960.844 337.897 960.775 338.025 960.748 338.165C960.72 338.304 960.734 338.449 960.788 338.58C960.843 338.711 960.935 338.824 961.053 338.903C961.172 338.981 961.311 339.024 961.453 339.023V339.023Z" fill="#CCCCCC"/>
<path id="Vector_7" d="M961.453 398.903C961.595 398.903 961.734 398.861 961.852 398.782C961.97 398.703 962.062 398.591 962.117 398.459C962.171 398.328 962.185 398.184 962.158 398.044C962.13 397.905 962.062 397.777 961.961 397.676L903.997 339.751C903.931 339.684 903.851 339.631 903.764 339.595C903.677 339.559 903.583 339.541 903.489 339.54C903.395 339.54 903.301 339.559 903.214 339.595C903.127 339.631 903.047 339.684 902.981 339.751C902.914 339.817 902.861 339.897 902.825 339.984C902.789 340.071 902.77 340.165 902.77 340.259C902.77 340.353 902.788 340.447 902.825 340.534C902.861 340.621 902.914 340.701 902.98 340.767L960.944 398.692C961.011 398.759 961.09 398.812 961.177 398.848C961.265 398.884 961.358 398.903 961.453 398.903V398.903Z" fill="#CCCCCC"/>
<path id="Vector_8" d="M1037.75 583.739H751.754C751.489 583.739 751.234 583.634 751.047 583.446C750.859 583.259 750.754 583.004 750.754 582.739C750.754 582.474 750.859 582.219 751.047 582.032C751.234 581.844 751.489 581.739 751.754 581.739H1037.75C1038.02 581.739 1038.27 581.844 1038.46 582.032C1038.65 582.219 1038.75 582.474 1038.75 582.739C1038.75 583.004 1038.65 583.259 1038.46 583.446C1038.27 583.634 1038.02 583.739 1037.75 583.739Z" fill="#CCCCCC"/>
<path id="Vector_9" d="M835.838 570.965L823.578 570.964L817.746 523.676L835.84 523.677L835.838 570.965Z" fill="#FFB8B8"/>
<path id="Vector_10" d="M814.821 567.461H838.465V582.348H799.934C799.934 578.4 801.503 574.613 804.294 571.821C807.086 569.03 810.873 567.461 814.821 567.461V567.461Z" fill="#2F2E41"/>
<path id="Vector_11" d="M924.793 557.077L913.642 562.171L888.688 521.581L905.147 514.064L924.793 557.077Z" fill="#FFB8B8"/>
<path id="Vector_12" d="M904.221 562.623L925.728 552.799L931.913 566.341L896.865 582.349C896.052 580.571 895.598 578.65 895.528 576.696C895.459 574.742 895.774 572.794 896.457 570.962C897.14 569.13 898.178 567.451 899.51 566.02C900.842 564.589 902.443 563.435 904.221 562.623V562.623Z" fill="#2F2E41"/>
<path id="Vector_13" d="M835.057 558.496H823.345C822.209 558.492 821.116 558.06 820.284 557.286C819.452 556.513 818.943 555.454 818.856 554.322L812.469 383.763C812.422 383.11 812.518 382.453 812.75 381.841C812.983 381.228 813.346 380.674 813.815 380.216C814.284 379.758 814.848 379.409 815.466 379.192C816.084 378.974 816.742 378.895 817.395 378.959L885.13 386.152C886.227 386.259 887.248 386.766 887.996 387.576C888.745 388.386 889.171 389.443 889.192 390.545L890.611 465.781C890.619 466.189 890.698 466.593 890.845 466.974L918.63 539.027C918.845 539.583 918.947 540.177 918.93 540.774C918.913 541.37 918.778 541.957 918.532 542.501C918.286 543.044 917.934 543.533 917.497 543.94C917.06 544.346 916.547 544.662 915.987 544.868L904.119 549.241C903.088 549.62 901.954 549.61 900.93 549.211C899.907 548.813 899.064 548.053 898.561 547.077L864.429 480.708C864.243 480.347 864.107 479.962 864.025 479.565L858.194 451.471C858.025 450.657 857.571 449.929 856.914 449.418C856.257 448.908 855.44 448.648 854.609 448.686C853.778 448.724 852.987 449.056 852.379 449.624C851.771 450.191 851.384 450.957 851.29 451.784L839.528 554.507C839.402 555.605 838.877 556.618 838.052 557.354C837.228 558.089 836.162 558.496 835.057 558.496V558.496Z" fill="#2F2E41"/>
<path id="Vector_14" d="M840.888 250.403C854.453 250.403 865.45 239.407 865.45 225.842C865.45 212.277 854.453 201.281 840.888 201.281C827.324 201.281 816.327 212.277 816.327 225.842C816.327 239.407 827.324 250.403 840.888 250.403Z" fill="#FFB8B8"/>
<path id="Vector_15" d="M857.822 399.326C836.096 399.327 819.085 390.282 812.926 386.496H812.926C812.228 386.067 811.661 385.453 811.288 384.724C810.914 383.994 810.749 383.175 810.809 382.358L816.782 296.985C817.165 291.223 818.892 285.631 821.823 280.656C824.754 275.681 828.809 271.461 833.663 268.333C838.299 265.264 843.59 263.323 849.111 262.665C854.632 262.007 860.23 262.651 865.458 264.544C867.765 265.34 869.944 266.469 871.925 267.894C885.156 277.749 891.532 292.588 889.42 308.607C885.04 341.825 890.002 386.636 890.582 391.636L890.624 391.996L890.295 392.148C880.122 396.876 869.039 399.326 857.822 399.326V399.326Z" fill="#6C63FF"/>
<path id="Vector_16" d="M889.091 411.521C890.265 410.637 891.232 409.506 891.922 408.208C892.612 406.911 893.01 405.477 893.086 404.009C893.162 402.541 892.916 401.074 892.364 399.711C891.812 398.349 890.968 397.124 889.892 396.123L904.303 363.423L885.995 366.526L875.116 397.102C873.554 399.022 872.751 401.449 872.858 403.921C872.966 406.394 873.976 408.741 875.699 410.519C877.421 412.296 879.736 413.38 882.204 413.565C884.672 413.749 887.123 413.022 889.091 411.521V411.521Z" fill="#FFB8B8"/>
<path id="Vector_17" d="M890.469 391.322C889.846 391.322 889.229 391.192 888.659 390.941C888.089 390.689 887.577 390.322 887.157 389.862L881.784 384C881.262 383.427 880.896 382.729 880.721 381.973C880.546 381.218 880.568 380.43 880.786 379.685L893.091 338.038L874.369 298.721C873.548 296.993 873.347 295.034 873.799 293.175C874.198 291.543 875.083 290.071 876.336 288.952C877.589 287.833 879.151 287.12 880.818 286.907C882.484 286.694 884.176 286.991 885.67 287.759C887.164 288.527 888.39 289.73 889.187 291.21L914.496 332.277C915.481 333.872 916.058 335.685 916.179 337.556C916.299 339.427 915.958 341.299 915.186 343.007L894.576 388.672C894.27 389.352 893.8 389.944 893.209 390.397C892.617 390.849 891.922 391.147 891.186 391.264C890.949 391.302 890.709 391.321 890.469 391.322V391.322Z" fill="#6C63FF"/>
<path id="Vector_18" d="M861.125 247.496C858.578 247.932 856.482 244.387 856.165 241.893C855.848 239.4 856.757 237.013 856.856 234.535C856.955 232.058 855.787 229.047 853.214 228.313C850.517 227.543 848.016 229.706 845.255 229.446C841.407 229.084 839.475 224.58 839.009 220.938C838.543 217.295 838.176 212.981 834.844 210.903C831.522 208.833 827.412 210.339 823.595 210.404C817.143 210.513 810.575 205.593 809.068 199.521C809.85 199.747 810.686 199.705 811.442 199.402C812.198 199.1 812.832 198.553 813.242 197.85C813.565 197.099 813.631 196.263 813.43 195.471C813.228 194.679 812.771 193.976 812.128 193.471L819.441 197.053C818.441 195.018 819.951 192.701 822.029 191.931C824.106 191.161 826.523 191.507 828.816 191.863C840.267 193.642 853.529 192.765 861.125 201.496C866.386 207.543 870.716 219.05 870.125 226.496C869.533 233.941 861.125 247.496 861.125 247.496Z" fill="#2F2E41"/>
<path id="Vector_19" d="M730.892 289.366C732.169 288.638 733.59 288.2 735.056 288.081C736.521 287.962 737.995 288.166 739.373 288.678C740.75 289.191 741.999 289.999 743.031 291.046C744.063 292.093 744.853 293.354 745.345 294.739L781.078 294.482L770.967 310.057L738.584 307.914C736.202 308.586 733.656 308.361 731.429 307.281C729.202 306.202 727.448 304.343 726.499 302.057C725.551 299.77 725.475 297.216 726.284 294.877C727.094 292.538 728.733 290.577 730.892 289.366V289.366Z" fill="#FFB8B8"/>
<path id="Vector_20" d="M749.485 306.343C749.358 305.732 749.36 305.103 749.49 304.493C749.619 303.884 749.875 303.308 750.239 302.802L754.882 296.348C755.337 295.719 755.945 295.218 756.65 294.893C757.354 294.568 758.13 294.429 758.903 294.49L800.703 292.739L836.858 271.699C838.382 270.542 840.258 269.946 842.171 270.01C843.85 270.068 845.472 270.633 846.823 271.632C848.174 272.63 849.19 274.015 849.739 275.603C850.287 277.191 850.341 278.908 849.894 280.527C849.446 282.146 848.519 283.592 847.233 284.673L812.189 317.825C810.828 319.114 809.171 320.05 807.364 320.549C805.557 321.048 803.655 321.096 801.825 320.688L752.917 309.823C752.189 309.662 751.513 309.323 750.95 308.836C750.386 308.349 749.953 307.729 749.688 307.033C749.603 306.809 749.535 306.578 749.485 306.343V306.343Z" fill="#6C63FF"/>
<path id="Vector_21" d="M276.703 581.739C276.703 571.926 280.601 562.515 287.54 555.576C294.479 548.637 303.89 544.739 313.703 544.739C323.516 544.739 332.927 548.637 339.866 555.576C346.804 562.515 350.703 571.926 350.703 581.739" fill="#F2F2F2"/>
<path id="Vector_22" d="M253.326 354.644L44.6807 407.654C42.0626 408.316 39.2887 407.913 36.9677 406.532C34.6467 405.151 32.9681 402.907 32.3002 400.29L1.87456 280.533C1.38952 278.615 1.68512 276.582 2.69651 274.882C3.70791 273.182 5.3525 271.952 7.26949 271.462L221.069 217.143C223.02 216.65 225.088 216.951 226.818 217.98C228.547 219.008 229.798 220.682 230.296 222.632L260.69 342.264C261.352 344.882 260.948 347.656 259.568 349.977C258.187 352.298 255.942 353.976 253.326 354.644Z" fill="#F2F2F2"/>
<path id="Vector_23" d="M51.7457 395.349L241.244 347.204C243.783 346.559 245.962 344.932 247.301 342.68C248.64 340.429 249.03 337.738 248.385 335.199L225.044 243.327C224.399 240.788 222.772 238.609 220.521 237.27C218.269 235.931 215.578 235.541 213.039 236.186L23.5404 284.332C21.0014 284.977 18.8227 286.604 17.4835 288.855C16.1443 291.107 15.7543 293.798 16.3994 296.337L39.7404 388.208C40.3855 390.747 42.0127 392.926 44.2641 394.265C46.5156 395.605 49.2068 395.995 51.7457 395.349V395.349Z" fill="white"/>
<path id="Vector_24" d="M229.983 221.977L1.59251 280.003L0.315561 274.977C-0.347845 272.35 0.0579054 269.567 1.4438 267.239C2.82969 264.91 5.08254 263.227 7.70811 262.558L216.282 209.566C218.909 208.901 221.692 209.305 224.021 210.689C226.351 212.074 228.036 214.326 228.706 216.951L229.983 221.977Z" fill="#E6E6E6"/>
<path id="Vector_25" d="M17.7068 270.623C19.1672 270.623 20.3511 269.44 20.3511 267.979C20.3511 266.519 19.1672 265.335 17.7068 265.335C16.2464 265.335 15.0625 266.519 15.0625 267.979C15.0625 269.44 16.2464 270.623 17.7068 270.623Z" fill="white"/>
<path id="Vector_26" d="M27.4348 268.152C28.8952 268.152 30.0791 266.968 30.0791 265.508C30.0791 264.047 28.8952 262.863 27.4348 262.863C25.9744 262.863 24.7905 264.047 24.7905 265.508C24.7905 266.968 25.9744 268.152 27.4348 268.152Z" fill="white"/>
<path id="Vector_27" d="M37.1629 265.68C38.6233 265.68 39.8072 264.496 39.8072 263.036C39.8072 261.576 38.6233 260.392 37.1629 260.392C35.7025 260.392 34.5186 261.576 34.5186 263.036C34.5186 264.496 35.7025 265.68 37.1629 265.68Z" fill="white"/>
<path id="Vector_28" d="M222.518 316.118L52.0695 359.424C51.4409 359.584 50.787 359.618 50.1451 359.525C49.5033 359.432 48.886 359.213 48.3286 358.882C47.7712 358.55 47.2846 358.112 46.8965 357.592C46.5084 357.073 46.2265 356.482 46.0668 355.853C45.9071 355.225 45.8727 354.571 45.9657 353.929C46.0588 353.287 46.2773 352.67 46.6088 352.112C46.9404 351.555 47.3785 351.068 47.8981 350.68C48.4177 350.292 49.0087 350.01 49.6373 349.851L220.086 306.545C221.356 306.223 222.701 306.418 223.827 307.087C224.953 307.757 225.766 308.846 226.089 310.116C226.411 311.385 226.216 312.731 225.547 313.856C224.877 314.982 223.788 315.796 222.518 316.118Z" fill="#E6E6E6"/>
<path id="Vector_29" d="M222.738 334.534L172.553 347.285C171.924 347.445 171.271 347.479 170.629 347.386C169.987 347.293 169.37 347.075 168.812 346.743C168.255 346.411 167.768 345.973 167.38 345.454C166.992 344.934 166.71 344.343 166.55 343.715C166.391 343.086 166.356 342.432 166.449 341.79C166.542 341.148 166.761 340.531 167.092 339.974C167.424 339.416 167.862 338.93 168.382 338.542C168.901 338.154 169.492 337.872 170.121 337.712L220.306 324.961C221.576 324.638 222.921 324.833 224.047 325.503C225.173 326.172 225.986 327.262 226.309 328.531C226.631 329.801 226.436 331.146 225.767 332.272C225.097 333.398 224.008 334.211 222.738 334.534V334.534Z" fill="#CCCCCC"/>
<path id="Vector_30" d="M214.565 272.279L106.342 299.775C105.073 300.098 103.727 299.903 102.601 299.233C101.476 298.563 100.662 297.474 100.339 296.205C100.017 294.935 100.212 293.59 100.882 292.464C101.551 291.338 102.64 290.524 103.91 290.202L212.133 262.706C212.762 262.545 213.416 262.511 214.058 262.603C214.7 262.696 215.318 262.914 215.876 263.246C216.433 263.577 216.92 264.016 217.309 264.535C217.697 265.055 217.979 265.646 218.139 266.275C218.299 266.904 218.333 267.558 218.24 268.2C218.147 268.843 217.928 269.46 217.596 270.018C217.264 270.575 216.826 271.062 216.306 271.45C215.786 271.838 215.194 272.119 214.565 272.279V272.279Z" fill="#E6E6E6"/>
<path id="Vector_31" d="M218.973 289.63L110.75 317.127C109.481 317.449 108.135 317.254 107.01 316.585C105.884 315.915 105.07 314.826 104.748 313.556C104.425 312.287 104.62 310.941 105.29 309.815C105.959 308.69 107.049 307.876 108.318 307.553L216.541 280.057C217.811 279.735 219.156 279.93 220.282 280.599C221.408 281.269 222.221 282.358 222.544 283.628C222.867 284.897 222.672 286.243 222.002 287.368C221.332 288.494 220.243 289.308 218.973 289.63V289.63Z" fill="#E6E6E6"/>
<path id="Vector_32" d="M94.0489 330.605L46.7811 342.614C45.7497 342.875 44.657 342.716 43.7427 342.172C42.8283 341.629 42.1671 340.744 41.9039 339.713L32.6313 303.216C32.3705 302.184 32.5294 301.091 33.0733 300.177C33.6171 299.263 34.5015 298.601 35.5323 298.338L82.8 286.329C83.8314 286.069 84.9241 286.228 85.8385 286.771C86.7528 287.315 87.4141 288.2 87.6772 289.23L96.9499 325.728C97.2107 326.76 97.0517 327.852 96.5079 328.767C95.964 329.681 95.0797 330.342 94.0489 330.605V330.605Z" fill="#E6E6E6"/>
<path id="Vector_33" d="M113.821 387.543C114.422 388.582 115.222 389.492 116.176 390.221C117.129 390.95 118.216 391.484 119.376 391.793C120.536 392.101 121.745 392.178 122.934 392.019C124.124 391.86 125.27 391.468 126.308 390.865C127.346 390.262 128.255 389.461 128.982 388.507C129.71 387.553 130.243 386.464 130.549 385.304C130.856 384.144 130.931 382.934 130.77 381.745C130.609 380.556 130.215 379.41 129.611 378.373C129.356 377.945 129.069 377.538 128.751 377.153L136.432 322.413L136.662 320.773L138.222 309.603L138.452 307.993L137.602 308.033L122.722 308.713L118.731 308.893L118.231 319.083L115.401 376.373C113.923 377.788 112.963 379.659 112.676 381.685C112.39 383.711 112.793 385.774 113.821 387.543V387.543Z" fill="#FFB8B8"/>
<path id="Vector_34" d="M136.617 321.272L117.723 319.538C116.743 319.445 115.839 318.969 115.209 318.213C114.579 317.456 114.273 316.482 114.359 315.501L117.863 276.209C118.033 274.301 118.584 272.446 119.483 270.754C120.383 269.062 121.613 267.568 123.1 266.36C124.587 265.152 126.301 264.254 128.141 263.72C129.981 263.187 131.91 263.027 133.812 263.252C135.715 263.476 137.553 264.08 139.219 265.028C140.884 265.976 142.342 267.248 143.507 268.769C144.672 270.29 145.52 272.029 146.001 273.884C146.481 275.739 146.585 277.671 146.306 279.566L140.641 318.106C140.51 318.989 140.067 319.796 139.392 320.38C138.717 320.964 137.855 321.286 136.962 321.287C136.848 321.287 136.733 321.282 136.617 321.272Z" fill="#6C63FF"/>
<path id="Vector_35" d="M122.298 289.526C120.387 284.113 120.298 278.223 122.046 272.755C123.793 267.287 127.281 262.54 131.977 259.238C139.102 254.363 148.852 252.613 159.352 265.113C180.352 290.113 185.852 317.613 185.852 317.613L142.852 324.613C142.852 324.613 128.227 306.739 122.298 289.526Z" fill="#6C63FF"/>
<path id="Vector_36" d="M191.843 571.133L204.103 571.132L209.935 523.844L191.841 523.845L191.843 571.133Z" fill="#FFB8B8"/>
<path id="Vector_37" d="M227.747 582.515L189.216 582.517L189.216 567.63L212.86 567.629C214.815 567.629 216.75 568.014 218.557 568.762C220.363 569.51 222.004 570.606 223.386 571.989C224.769 573.371 225.865 575.012 226.614 576.818C227.362 578.624 227.747 580.56 227.747 582.515V582.515V582.515Z" fill="#2F2E41"/>
<path id="Vector_38" d="M91.049 560.44L102.689 564.288L123.069 521.22L105.889 515.541L91.049 560.44Z" fill="#FFB8B8"/>
<path id="Vector_39" d="M121.566 582.517L84.982 570.425L89.6539 556.29L112.103 563.71C115.852 564.949 118.955 567.627 120.73 571.154C122.504 574.68 122.805 578.768 121.566 582.517L121.566 582.517Z" fill="#2F2E41"/>
<path id="Vector_40" d="M149.289 246.84C162.853 246.84 173.85 235.843 173.85 222.279C173.85 208.714 162.853 197.718 149.289 197.718C135.724 197.718 124.728 208.714 124.728 222.279C124.728 235.843 135.724 246.84 149.289 246.84Z" fill="#FFB8B8"/>
<path id="Vector_41" d="M170.793 557.968L159.408 482.823C159.286 482.021 158.89 481.286 158.287 480.744C157.684 480.202 156.911 479.886 156.1 479.851C155.29 479.815 154.492 480.062 153.844 480.55C153.196 481.037 152.737 481.735 152.546 482.523L135.208 554.136C134.935 555.233 134.261 556.188 133.32 556.814C132.379 557.441 131.238 557.692 130.12 557.521L82.2951 549.834C81.661 549.732 81.056 549.496 80.5208 549.141C79.9857 548.786 79.5327 548.32 79.1924 547.775C78.8521 547.231 78.6323 546.619 78.5478 545.983C78.4633 545.346 78.5161 544.699 78.7026 544.084L141.063 338.488C141.241 337.903 141.262 337.282 141.124 336.687L139.048 327.69C138.82 326.714 138.925 325.69 139.347 324.782C139.769 323.873 140.483 323.131 141.375 322.676C149.866 318.343 171.37 309.335 187.606 319.202C188.133 319.524 188.589 319.949 188.946 320.452C189.304 320.955 189.555 321.526 189.685 322.129L238.401 551.095C238.534 551.717 238.533 552.361 238.398 552.983C238.264 553.605 237.998 554.192 237.62 554.704C237.242 555.216 236.76 555.642 236.205 555.954C235.65 556.266 235.035 556.457 234.401 556.514L175.644 561.775C175.509 561.787 175.374 561.793 175.241 561.793C174.165 561.791 173.126 561.404 172.31 560.703C171.494 560.001 170.956 559.031 170.793 557.968Z" fill="#2F2E41"/>
<path id="Vector_42" d="M133.002 204.926C134.854 203.812 136.497 202.384 137.858 200.706C138.529 199.858 138.97 198.852 139.14 197.784C139.31 196.716 139.202 195.623 138.827 194.609C137.586 191.871 133.899 191.004 131.042 191.937C128.185 192.871 125.977 195.109 123.889 197.271C122.05 199.175 120.158 201.163 119.285 203.662C118.413 206.162 118.861 209.331 121.031 210.847C123.161 212.336 126.223 211.726 128.271 210.128C130.319 208.53 131.588 206.158 132.797 203.858L133.002 204.926Z" fill="#2F2E41"/>
<path id="Vector_43" d="M124.684 197.928C124.548 191.007 116.659 186.045 109.847 187.271C103.035 188.497 97.7984 194.306 95.1772 200.712C89.6391 214.248 93.7965 229.692 99.1327 243.308C104.469 256.924 111.072 270.747 110.294 285.351C109.768 293.245 107.12 300.85 102.628 307.364C98.1374 313.877 91.9706 319.057 84.7793 322.355C92.4677 325.84 101.658 322.24 108.118 316.807C122.466 304.742 128.005 283.262 121.279 265.763C117.962 257.132 112.116 249.748 107.552 241.707C102.988 233.665 99.6397 224.189 101.996 215.248C104.352 206.307 114.38 199.065 122.953 202.529L124.684 197.928Z" fill="#2F2E41"/>
<path id="Vector_44" d="M150.761 233.178C148.621 229.559 146.459 224.809 150.373 221.647C151.224 220.99 152.198 220.511 153.237 220.236C154.276 219.961 155.36 219.897 156.424 220.047C160.836 220.579 165.641 220.798 169.911 219.195C171.513 218.644 172.988 217.776 174.248 216.644C175.508 215.512 176.527 214.138 177.246 212.604C179.451 207.381 176.69 201.033 172.081 197.73C169.261 195.784 165.929 194.713 162.503 194.652C159.077 194.591 155.71 195.544 152.823 197.39C146.853 194.753 139.61 195.926 134.186 199.555C128.763 203.185 125.052 208.998 123.035 215.205C121.178 220.547 120.859 226.304 122.113 231.82C123.122 235.657 125.041 239.194 127.707 242.132C130.373 245.07 133.708 247.322 137.429 248.698C138.879 249.27 140.454 249.45 141.995 249.221C143.536 248.993 144.99 248.363 146.212 247.395C146.212 247.395 149.597 244.44 150.656 240.881C151.47 238.147 151.905 235.111 150.761 233.178Z" fill="#2F2E41"/>
<path id="Vector_45" d="M475.754 583.739H54.7538C54.4886 583.739 54.2342 583.634 54.0467 583.446C53.8592 583.259 53.7538 583.004 53.7538 582.739C53.7538 582.474 53.8592 582.219 54.0467 582.032C54.2342 581.844 54.4886 581.739 54.7538 581.739H475.754C476.019 581.739 476.273 581.844 476.461 582.032C476.648 582.219 476.754 582.474 476.754 582.739C476.754 583.004 476.648 583.259 476.461 583.446C476.273 583.634 476.019 583.739 475.754 583.739Z" fill="#CCCCCC"/>
<path id="Vector_46" d="M223.624 255.093C223.501 255.633 223.421 256.181 223.384 256.734L180.427 281.515L169.985 275.505L158.854 290.077L176.305 302.514C177.714 303.519 179.412 304.039 181.143 303.997C182.873 303.955 184.544 303.353 185.903 302.281L230.199 267.335C232.198 268.075 234.375 268.189 236.441 267.661C238.506 267.134 240.362 265.99 241.761 264.382C243.161 262.774 244.038 260.778 244.275 258.66C244.513 256.541 244.099 254.401 243.091 252.523C242.082 250.645 240.525 249.119 238.628 248.147C236.731 247.176 234.583 246.805 232.469 247.084C230.356 247.363 228.378 248.278 226.798 249.709C225.217 251.14 224.11 253.018 223.624 255.093V255.093Z" fill="#FFB8B8"/>
<path id="Vector_47" d="M178.991 282.689L165.107 300.683C164.712 301.195 164.211 301.616 163.639 301.917C163.067 302.218 162.436 302.392 161.79 302.427C161.145 302.463 160.499 302.359 159.897 302.122C159.295 301.885 158.752 301.522 158.303 301.056L142.586 284.735C139.976 282.699 138.281 279.712 137.871 276.428C137.461 273.144 138.371 269.831 140.4 267.217C142.429 264.603 145.413 262.9 148.696 262.483C151.979 262.065 155.293 262.967 157.912 264.99L177.625 276.013C178.19 276.329 178.679 276.763 179.061 277.285C179.443 277.807 179.707 278.405 179.837 279.039C179.966 279.672 179.958 280.326 179.812 280.956C179.666 281.586 179.386 282.177 178.991 282.689H178.991Z" fill="#6C63FF"/>
<path id="Vector_48" d="M313.703 583.739C313.437 583.739 313.183 583.634 312.996 583.446C312.808 583.259 312.703 583.004 312.703 582.739V563.239C312.703 562.974 312.808 562.719 312.996 562.532C313.183 562.344 313.437 562.239 313.703 562.239C313.968 562.239 314.222 562.344 314.41 562.532C314.597 562.719 314.703 562.974 314.703 563.239V582.739C314.703 583.004 314.597 583.259 314.41 583.446C314.222 583.634 313.968 583.739 313.703 583.739Z" fill="#CCCCCC"/>
<path id="Vector_49" d="M313.702 575.038C313.463 575.039 313.232 574.953 313.051 574.797L301.051 564.498C300.951 564.413 300.868 564.308 300.808 564.191C300.748 564.074 300.712 563.946 300.701 563.814C300.691 563.683 300.707 563.551 300.748 563.425C300.788 563.3 300.854 563.184 300.94 563.084C301.025 562.984 301.13 562.902 301.248 562.843C301.366 562.783 301.494 562.748 301.625 562.738C301.757 562.728 301.889 562.745 302.014 562.786C302.139 562.828 302.255 562.894 302.354 562.98L314.354 573.28C314.509 573.413 314.62 573.59 314.671 573.788C314.722 573.986 314.711 574.194 314.64 574.386C314.569 574.577 314.441 574.743 314.274 574.859C314.106 574.976 313.906 575.038 313.702 575.038H313.702Z" fill="#CCCCCC"/>
<path id="Vector_50" d="M363.703 581.739C363.703 571.926 367.601 562.515 374.54 555.576C381.479 548.637 390.89 544.739 400.703 544.739C410.516 544.739 419.927 548.637 426.866 555.576C433.804 562.515 437.703 571.926 437.703 581.739" fill="#F2F2F2"/>
<path id="Vector_51" d="M400.703 583.739C400.437 583.739 400.183 583.634 399.996 583.446C399.808 583.259 399.703 583.004 399.703 582.739V563.239C399.703 562.974 399.808 562.719 399.996 562.532C400.183 562.344 400.437 562.239 400.703 562.239C400.968 562.239 401.222 562.344 401.41 562.532C401.597 562.719 401.703 562.974 401.703 563.239V582.739C401.703 583.004 401.597 583.259 401.41 583.446C401.222 583.634 400.968 583.739 400.703 583.739Z" fill="#CCCCCC"/>
<path id="Vector_52" d="M400.702 575.038C400.463 575.039 400.232 574.953 400.051 574.797L388.051 564.498C387.85 564.325 387.726 564.079 387.705 563.815C387.685 563.551 387.771 563.289 387.944 563.088C388.117 562.886 388.362 562.762 388.627 562.742C388.891 562.722 389.153 562.807 389.354 562.98L401.354 573.28C401.509 573.413 401.62 573.59 401.671 573.788C401.722 573.986 401.711 574.194 401.64 574.386C401.569 574.577 401.441 574.743 401.274 574.859C401.106 574.976 400.906 575.038 400.702 575.038V575.038Z" fill="#CCCCCC"/>
</g>
<defs>
<clipPath id="clip0">
<rect width="1048.9" height="583.739" fill="white"/>
</clipPath>
</defs>
</svg>
