<svg xmlns="http://www.w3.org/2000/svg" viewBox="0 0 486.54 395.35"><defs><style>.cls-1{fill:#fff;}</style></defs><title>Untitled-1</title><g id="Tshirt_Thumbnail" data-name="Tshirt Thumbnail"><path class="cls-1" d="M434.74,485.76c-.39-12.08-.8-29.87-.73-51.5.12-37.42,1.54-37.51-.61-42.8-13-32.13-70-40.12-113.63-46.26-13.74-1.93-25.3-2.8-33.5-3.23V324.58a197.59,197.59,0,0,1,47.42,4c6.64,1.41,14.39,3.44,15.44,1.31,2.45-4.92-33.64-27-30.09-35.44.34-.82,4.35-5,6.79-6.8l3.24-.56c10.23-1.77,28.47,34.86,38.12,32.1a15,15,0,0,0,5.23-3.6c.9-.9,4.32-4.35,3.46-6.43s-5.54-1-9.36-2c-11.36-2.9-11.91-26.39-8.69-28.38,2.21-1.37,7.72,3.63,15.38,12.33,9.66,11,16.56,27.86,20.73,25.42,5.74-3.37-5.1-32.8,2-36.12a10.83,10.83,0,0,1,4.92-.4,14.74,14.74,0,0,1,7.78,3.75c5.21,5.13-.54,13.55,2,22.73,3.42,12.31,20.39,21.22,26.75,17.39,3.5-2.1,3.45-9,3.35-22.74-.12-15.53-2.37-22.29,2-30.76,1-2,4.27-8.27,8-8,4.06.27,6.52,8,12,26.76s8.23,28,8.69,30.09c4.7,21.49,8.34,83.42,5.35,166.53Z" transform="translate(-230.76 -90.41)"/><path class="cls-1" d="M526.66,485.76c.36-9.91.74-24.51.67-42.24-.11-30.7-1.41-30.77.56-35.11,12-26.36,64.15-32.92,104.18-38,12.6-1.58,23.2-2.3,30.72-2.65V353.55a201.1,201.1,0,0,0-43.48,3.31c-6.08,1.15-13.19,2.82-14.16,1.07-2.24-4,30.85-22.16,27.6-29.07a33.12,33.12,0,0,0-6.23-5.58l-3-.46c-9.38-1.45-26.11,28.6-34.95,26.34a13.87,13.87,0,0,1-4.8-3c-.83-.74-4-3.57-3.18-5.27s5.08-.85,8.59-1.65c10.41-2.38,10.92-21.65,8-23.28-2-1.13-7.08,3-14.1,10.12-8.86,9-15.19,22.85-19,20.84-5.27-2.76,4.67-26.9-1.84-29.62a11,11,0,0,0-4.52-.33,14.3,14.3,0,0,0-7.13,3.07c-4.78,4.21.5,11.12-1.84,18.65-3.13,10.1-18.7,17.41-24.53,14.27-3.21-1.73-3.16-7.37-3.07-18.66.11-12.74,2.17-18.28-1.84-25.23-.95-1.65-3.91-6.79-7.35-6.58-3.73.22-6,6.56-11,21.94s-7.55,22.95-8,24.69c-4.31,17.62-7.65,68.42-4.91,136.6Z" transform="translate(-230.76 -90.41)"/><path class="cls-1" d="M490,318.56c-5.7-2.41-7.79-39.95,15.67-63.53,3.4-3.42,11.92-21.28,15-24.08,11.84-10.59,22.21-24.55,26.85-63.69l10.93,2.5c-14,30.67-11.92,37.43-7.69,41.13,0,0,8.13,15.84,140.78-76.91l3.34,5.57c-7.67,12.8-20.91,31.21-42.46,46.26-38.2,26.67-59.58,17.81-95.64,40.13C507.8,256.25,497,321.56,490,318.56Z" transform="translate(-230.76 -90.41)"/><path class="cls-1" d="M396.28,250.68" transform="translate(-230.76 -90.41)"/><path class="cls-1" d="M396.28,250.68c-5.15-3.9-11.81-10.26-15-19.73-5.24-15.34,1.14-31.13-4-33.44-1.05-.47-2.91-.53-6.35,2L369.53,243s-47.82,6.69-53.84-9.36c0,0-33.44-14.38-36.78-25.08l-2.34,11.37s20.06,9.69,23.41,15,3,8.7,3,8.7S266.2,245,255.84,253c0,0-20.4,8.36-25.08,17.06h13s14.38-9.37,21.73-12.38S302,251,307,253.36,396.28,250.68,396.28,250.68Z" transform="translate(-230.76 -90.41)"/><path class="cls-1" d="M301.87,163c17.4,19.23,65.53-5.58,115,9.36A108.32,108.32,0,0,1,457,195.06c22.17,20.43,29.73,46.68,33,45.48,2.59-.95-1.5-17.7-2.67-23.19-12-56.1,33.51-105.94,25-111.91-3.11-2.16-10.55,3-14.27,6.24-24.92,21.68-9.3,66.53-22.74,71.79-7.36,2.88-13.69-9.94-34.78-21.85-24.36-13.76-33.78-6.74-57.07-16.05-42.54-17-58.11-59.24-66-54.84-4.38,2.45-1,16.29,1.33,22.74C328,138.9,362.42,143,362.06,148.25c-.47,6.84-28.7,6.77-54.39,6.68C303,154.92,298.93,159.71,301.87,163Z" transform="translate(-230.76 -90.41)"/><path class="cls-1" d="M652.26,276.26c0,3-37.09,3.83-37.12,7.36,0,1.21,4.32,1.78,17.06,4.68,5.79,1.32,23.15,5.4,39.12,14.38,3.11,1.75,7,4.14,7,7.36,0,1.63-.93,2.9-6.69,7.69-9.81,8.17-13.35,9.76-17,10.37-1.89.31-4.63.73-5.68-.67-1.4-1.86.8-6.09,3-8.7,4.2-5,9.27-5,9.37-7,.12-2.43-7.3-4.61-12-6-33.3-9.91-30.66-10.68-37.12-11-13.08-.72-21,2.6-24.07-2-2.16-3.25-.2-7.9,0-8.36,4.47-10.27,46.11-13.73,57.18-14.17C659.7,269.55,652.27,274.34,652.26,276.26Z" transform="translate(-230.76 -90.41)"/><polygon class="cls-1" points="385.42 146.26 385.52 138.94 379.55 134.71 386.54 132.54 388.72 125.56 392.94 131.54 400.26 131.45 395.88 137.31 398.22 144.25 391.29 141.89 385.42 146.26"/><polygon class="cls-1" points="440.78 131.55 450.13 136.78 459.75 132.04 457.66 142.55 465.14 150.23 454.5 151.5 449.51 160.98 445.01 151.25 434.45 149.44 442.32 142.16 440.78 131.55"/><polygon class="cls-1" points="338.17 161.43 341.86 173.95 354.26 178.01 343.49 185.39 343.46 198.44 333.12 190.48 320.7 194.48 325.08 182.19 317.43 171.61 330.48 171.97 338.17 161.43"/><polygon class="cls-1" points="469.48 205.8 469.6 197.39 462.74 192.52 470.77 190.04 473.28 182.01 478.13 188.88 486.54 188.78 481.5 195.52 484.19 203.49 476.23 200.78 469.48 205.8"/><polygon class="cls-1" points="458.98 249.28 459.1 240.87 452.24 236 460.27 233.51 462.78 225.48 467.63 232.36 476.04 232.26 471 239 473.69 246.96 465.73 244.25 458.98 249.28"/><polygon class="cls-1" points="93.45 117.11 80.51 111.59 68.62 119.13 69.87 105.11 59.03 96.14 72.74 93 77.93 79.91 85.16 91.98 99.2 92.87 89.95 103.48 93.45 117.11"/><polygon class="cls-1" points="33.11 149.79 24.59 144.56 15.45 148.6 17.8 138.88 11.13 131.44 21.1 130.67 26.11 122.03 29.93 131.27 39.7 133.37 32.09 139.85 33.11 149.79"/><polygon class="cls-1" points="214.68 133.01 206.17 127.77 197.03 131.82 199.38 122.1 192.7 114.66 202.67 113.89 207.69 105.24 211.5 114.49 221.28 116.59 213.66 123.07 214.68 133.01"/><polygon class="cls-1" points="33.11 212.11 24.59 206.87 15.45 210.92 17.8 201.2 11.13 193.76 21.1 192.99 26.11 184.34 29.93 193.58 39.7 195.69 32.09 202.16 33.11 212.11"/><polygon class="cls-1" points="81.08 212.11 73.98 207.74 66.35 211.12 68.31 203.01 62.74 196.8 71.06 196.16 75.25 188.94 78.42 196.65 86.58 198.41 80.23 203.81 81.08 212.11"/><polygon class="cls-1" points="214.68 164.05 206.17 158.81 197.03 162.86 199.38 153.14 192.7 145.7 202.67 144.93 207.69 136.28 211.5 145.53 221.28 147.63 213.66 154.11 214.68 164.05"/></g></svg>